<svg width="35" height="35" viewBox="0 0 35 35" fill="none" xmlns="http://www.w3.org/2000/svg">
<rect x="0.609524" y="0.609524" width="32.9143" height="32.9143" rx="3.39048" fill="#7154E0"/>
<rect x="0.609524" y="0.609524" width="32.9143" height="32.9143" rx="3.39048" stroke="#7155E0" stroke-width="1.21905"/>
<path d="M21.6379 8.83828C21.8707 8.56311 22.1587 8.33913 22.4836 8.18062C22.8084 8.0221 23.163 7.93253 23.5246 7.91761C23.8863 7.90268 24.2471 7.96274 24.584 8.09395C24.921 8.22515 25.2268 8.42463 25.4818 8.67967C25.7368 8.93471 25.9356 9.23971 26.0653 9.57523C26.1951 9.91075 26.253 10.2694 26.2355 10.6284C26.2179 10.9874 26.1252 11.3388 25.9633 11.6603C25.8013 11.9817 25.5738 12.2661 25.295 12.4954L12.9522 24.8383L7.92358 26.2097L9.29501 21.1811L21.6379 8.83828Z" stroke="white" stroke-width="1.5" stroke-linecap="round" stroke-linejoin="round"/>
<path d="M19.8098 10.6669L23.4669 14.3241" stroke="white" stroke-width="1.5" stroke-linecap="round" stroke-linejoin="round"/>
</svg>
